<svg width="20" height="21" viewBox="0 0 20 21" fill="none" xmlns="http://www.w3.org/2000/svg">
<g clip-path="url(#clip0_70_5224)">
<path fill-rule="evenodd" clip-rule="evenodd" d="M1.1806 2.13257C0.298477 2.13257 -0.416626 2.87873 -0.416626 3.79923V13.7992H1.78009C2.01653 14.7577 2.85033 15.4659 3.84263 15.4659C4.83493 15.4659 5.66874 14.7577 5.90518 13.7992H11.8958C12.1323 14.7577 12.9661 15.4659 13.9584 15.4659C14.9507 15.4659 15.7845 14.7577 16.0209 13.7992H18.75V9.28574C18.75 8.82057 18.5638 8.37657 18.2362 8.06107L15.424 5.35235C15.129 5.06818 14.7422 4.91035 14.3406 4.91035H13.9584V4.35479H13.426V3.79923C13.426 3.4924 13.1876 3.24368 12.8936 3.24368C12.5995 3.24368 12.3612 3.4924 12.3612 3.79923V4.35479H11.8287V4.91035H11.2963V3.79923C11.2963 2.87873 10.5813 2.13257 9.69911 2.13257H1.1806ZM13.9584 11.0215C12.9661 11.0215 12.1323 11.7297 11.8958 12.6881H11.2963V9.91035H17.6852V12.6881H16.0209C15.7845 11.7297 14.9507 11.0215 13.9584 11.0215ZM17.4327 8.79923H11.2963V6.02146H14.3406C14.4745 6.02146 14.6034 6.07407 14.7018 6.16879L17.4327 8.79923ZM4.90745 13.2437C4.90745 13.8573 4.43073 14.3548 3.84263 14.3548C3.25454 14.3548 2.77782 13.8573 2.77782 13.2437C2.77782 12.63 3.25454 12.1326 3.84263 12.1326C4.43073 12.1326 4.90745 12.63 4.90745 13.2437ZM13.9584 14.3548C14.5465 14.3548 15.0232 13.8573 15.0232 13.2437C15.0232 12.63 14.5465 12.1326 13.9584 12.1326C13.3703 12.1326 12.8936 12.63 12.8936 13.2437C12.8936 13.8573 13.3703 14.3548 13.9584 14.3548Z" fill="#00A859"/>
<path d="M19.7103 2.7581L21.5903 3.69808V1.81812L19.7103 2.7581Z" fill="#00A859"/>
</g>
<defs>
<clipPath id="clip0_70_5224">
<rect width="20" height="20" fill="white" transform="translate(0 0.46582)"/>
</clipPath>
</defs>
</svg>
