<svg width="36" height="37" viewBox="0 0 36 37" fill="none" xmlns="http://www.w3.org/2000/svg">
<rect y="0.46582" width="36" height="36" rx="6" fill="#00A859" fill-opacity="0.3"/>
<g clip-path="url(#clip0_70_5149)">
<path fill-rule="evenodd" clip-rule="evenodd" d="M9.1806 10.1326C8.29848 10.1326 7.58337 10.8787 7.58337 11.7992V21.7992H9.78009C10.0165 22.7577 10.8503 23.4659 11.8426 23.4659C12.8349 23.4659 13.6687 22.7577 13.9052 21.7992H19.8958C20.1323 22.7577 20.9661 23.4659 21.9584 23.4659C22.9507 23.4659 23.7845 22.7577 24.0209 21.7992H26.75V17.2857C26.75 16.8206 26.5638 16.3766 26.2362 16.0611L23.424 13.3523C23.129 13.0682 22.7422 12.9103 22.3406 12.9103H21.9584V12.3548H21.426V11.7992C21.426 11.4924 21.1876 11.2437 20.8936 11.2437C20.5995 11.2437 20.3612 11.4924 20.3612 11.7992V12.3548H19.8287V12.9103H19.2963V11.7992C19.2963 10.8787 18.5813 10.1326 17.6991 10.1326H9.1806ZM21.9584 19.0215C20.9661 19.0215 20.1323 19.7297 19.8958 20.6881H19.2963V17.9103H25.6852V20.6881H24.0209C23.7845 19.7297 22.9507 19.0215 21.9584 19.0215ZM25.4327 16.7992H19.2963V14.0215H22.3406C22.4745 14.0215 22.6034 14.0741 22.7018 14.1688L25.4327 16.7992ZM12.9074 21.2437C12.9074 21.8573 12.4307 22.3548 11.8426 22.3548C11.2545 22.3548 10.7778 21.8573 10.7778 21.2437C10.7778 20.63 11.2545 20.1326 11.8426 20.1326C12.4307 20.1326 12.9074 20.63 12.9074 21.2437ZM21.9584 22.3548C22.5465 22.3548 23.0232 21.8573 23.0232 21.2437C23.0232 20.63 22.5465 20.1326 21.9584 20.1326C21.3703 20.1326 20.8936 20.63 20.8936 21.2437C20.8936 21.8573 21.3703 22.3548 21.9584 22.3548Z" fill="#00A859"/>
<path d="M27.7103 10.7581L29.5903 11.6981V9.81812L27.7103 10.7581Z" fill="#00A859"/>
</g>
<defs>
<clipPath id="clip0_70_5149">
<rect width="20" height="20" fill="white" transform="translate(8 8.46582)"/>
</clipPath>
</defs>
</svg>
