<svg width="19" height="14" viewBox="0 0 19 14" fill="none" xmlns="http://www.w3.org/2000/svg">
<path fill-rule="evenodd" clip-rule="evenodd" d="M1.1806 0.132568C0.298477 0.132568 -0.416626 0.878735 -0.416626 1.79923V11.7992H1.78009C2.01653 12.7577 2.85033 13.4659 3.84263 13.4659C4.83493 13.4659 5.66874 12.7577 5.90518 11.7992H11.8958C12.1323 12.7577 12.9661 13.4659 13.9584 13.4659C14.9507 13.4659 15.7845 12.7577 16.0209 11.7992H18.75V7.28574C18.75 6.82057 18.5638 6.37657 18.2362 6.06107L15.424 3.35235C15.129 3.06818 14.7422 2.91035 14.3406 2.91035H13.9584V2.35479H13.426V1.79923C13.426 1.4924 13.1876 1.24368 12.8936 1.24368C12.5995 1.24368 12.3612 1.4924 12.3612 1.79923V2.35479H11.8287V2.91035H11.2963V1.79923C11.2963 0.878735 10.5813 0.132568 9.69911 0.132568H1.1806ZM13.9584 9.02146C12.9661 9.02146 12.1323 9.72968 11.8958 10.6881H11.2963V7.91035H17.6852V10.6881H16.0209C15.7845 9.72968 14.9507 9.02146 13.9584 9.02146ZM17.4327 6.79923H11.2963V4.02146H14.3406C14.4745 4.02146 14.6034 4.07407 14.7018 4.16879L17.4327 6.79923ZM4.90745 11.2437C4.90745 11.8573 4.43073 12.3548 3.84263 12.3548C3.25454 12.3548 2.77782 11.8573 2.77782 11.2437C2.77782 10.63 3.25454 10.1326 3.84263 10.1326C4.43073 10.1326 4.90745 10.63 4.90745 11.2437ZM13.9584 12.3548C14.5465 12.3548 15.0232 11.8573 15.0232 11.2437C15.0232 10.63 14.5465 10.1326 13.9584 10.1326C13.3703 10.1326 12.8936 10.63 12.8936 11.2437C12.8936 11.8573 13.3703 12.3548 13.9584 12.3548Z" fill="#00A859"/>
</svg>
