<svg width="21" height="20" viewBox="0 0 21 20" fill="none" xmlns="http://www.w3.org/2000/svg">
<path d="M6.62501 9.00016C6.62501 8.73494 6.73037 8.48059 6.9179 8.29305C7.10544 8.10551 7.3598 8.00016 7.62501 8.00016H13.625C13.8902 8.00016 14.1446 8.10551 14.3321 8.29305C14.5197 8.48059 14.625 8.73494 14.625 9.00016C14.625 9.26537 14.5197 9.51973 14.3321 9.70726C14.1446 9.8948 13.8902 10.0002 13.625 10.0002H7.62501C7.3598 10.0002 7.10544 9.8948 6.9179 9.70726C6.73037 9.51973 6.62501 9.26537 6.62501 9.00016ZM7.62501 12.0002C7.3598 12.0002 7.10544 12.1055 6.9179 12.293C6.73037 12.4806 6.62501 12.7349 6.62501 13.0002C6.62501 13.2654 6.73037 13.5197 6.9179 13.7073C7.10544 13.8948 7.3598 14.0002 7.62501 14.0002H11.625C11.8902 14.0002 12.1446 13.8948 12.3321 13.7073C12.5197 13.5197 12.625 13.2654 12.625 13.0002C12.625 12.7349 12.5197 12.4806 12.3321 12.293C12.1446 12.1055 11.8902 12.0002 11.625 12.0002H7.62501ZM0.625011 10.0002C0.625513 7.80776 1.34649 5.67627 2.677 3.93375C4.0075 2.19123 5.87378 0.934236 7.98861 0.356232C10.1034 -0.221772 12.3496 -0.0887551 14.3815 0.734811C16.4133 1.55838 18.1182 3.02685 19.2337 4.91422C20.3493 6.8016 20.8136 9.00328 20.5554 11.1804C20.2971 13.3576 19.3306 15.3895 17.8044 16.9635C16.2783 18.5375 14.2771 19.5664 12.109 19.8917C9.9409 20.2171 7.72593 19.8209 5.80501 18.7642L1.91701 19.9482C1.74359 20.001 1.55908 20.0057 1.3832 19.9617C1.20732 19.9178 1.04669 19.8269 0.918506 19.6987C0.790318 19.5705 0.699387 19.4098 0.655441 19.234C0.611494 19.0581 0.616185 18.8736 0.669011 18.7002L1.85301 14.8062C1.04492 13.3334 0.622486 11.6801 0.625011 10.0002ZM10.625 2.00016C9.20489 2.00004 7.81033 2.37795 6.58457 3.09507C5.35881 3.81219 4.34603 4.84268 3.65027 6.08068C2.9545 7.31869 2.60082 8.71959 2.62555 10.1395C2.65029 11.5594 3.05255 12.9471 3.79101 14.1602C3.86432 14.2807 3.9113 14.4153 3.92888 14.5552C3.94646 14.6952 3.93424 14.8373 3.89301 14.9722L3.12701 17.4902L5.64101 16.7242C5.77633 16.6829 5.91885 16.6709 6.05917 16.6888C6.19949 16.7067 6.33441 16.7542 6.45501 16.8282C7.50937 17.4719 8.69848 17.8627 9.92915 17.9699C11.1598 18.0772 12.3986 17.898 13.5484 17.4464C14.6983 16.9948 15.7279 16.283 16.5566 15.3669C17.3853 14.4507 17.9906 13.3551 18.325 12.1659C18.6594 10.9767 18.7139 9.72624 18.4842 8.51245C18.2545 7.29867 17.7468 6.15457 17.0009 5.16983C16.255 4.1851 15.2912 3.38647 14.185 2.83655C13.0789 2.28663 11.8603 2.00035 10.625 2.00016Z" fill="#92929D"/>
</svg>
