<svg width="318" height="150" viewBox="0 0 318 150" fill="none" xmlns="http://www.w3.org/2000/svg">
<g clip-path="url(#clip0_68_4515)">
<path d="M158.437 149.955C206.727 149.955 245.874 147.673 245.874 144.859C245.874 142.044 206.727 139.762 158.437 139.762C110.147 139.762 71 142.044 71 144.859C71 147.673 110.147 149.955 158.437 149.955Z" fill="#00A859" fill-opacity="0.3"/>
<path d="M160.376 17.0475L160.061 16.822C161.458 15.018 162.992 13.3043 164.48 11.7258L164.75 11.9964C163.307 13.5749 161.819 15.2886 160.376 17.0475Z" fill="#00A859"/>
<path d="M158.707 18.557L157.25 20.3944L157.568 20.6467L159.025 18.8092L158.707 18.557Z" fill="#00A859"/>
<path d="M190.003 37.9735C199.788 22.2339 201.141 6.67468 194.016 1.66867C186.846 -3.33734 172.687 3.15694 161.188 17.6789L128.224 59.2604L162 83.0728L190.003 37.9735Z" fill="#00A859"/>
<path opacity="0.1" d="M186.125 35.2676L157.445 79.8707L153.928 73.1509L182.427 32.4714C190.499 20.9711 195.008 10.463 195.008 4.60012C195.008 4.05893 195.775 3.92363 195.955 4.41972C197.985 10.2826 194.467 22.3241 186.125 35.2676Z" fill="#F7FAFF"/>
<path d="M161.995 83.0568C166.556 76.5809 162.692 66.0063 153.366 59.4378C144.041 52.8692 132.784 52.7941 128.224 59.27C123.663 65.7459 127.527 76.3205 136.853 82.8891C146.178 89.4576 157.435 89.5327 161.995 83.0568Z" fill="#00A859"/>
<path opacity="0.5" d="M161.995 83.0568C166.556 76.5809 162.692 66.0063 153.366 59.4378C144.041 52.8692 132.784 52.7941 128.224 59.27C123.663 65.7459 127.527 76.3205 136.853 82.8891C146.178 89.4576 157.435 89.5327 161.995 83.0568Z" fill="#F7FAFF"/>
<path opacity="0.1" d="M158.482 52.0445C151.087 46.813 142.654 45.3247 137.288 47.7601L128.901 58.3133C133.861 52.7661 144.458 53.172 153.342 59.3957C162.225 65.6194 166.148 75.4961 162.586 82.0355L169.62 70.7607C170.207 64.8527 165.968 57.3211 158.482 52.0445Z" fill="#191919"/>
<path opacity="0.2" d="M170.342 18.0848C168.268 21.3319 166.734 27.4203 172.867 31.7498C178.955 36.0343 184.186 32.5616 186.576 29.4949L170.342 18.0848Z" fill="#191919"/>
<path d="M187.974 25.7066C187.252 31.5244 180.533 35.7637 173.499 30.8028C166.419 25.8419 168.177 18.0848 173.408 15.469C176.655 13.8455 180.759 14.567 183.555 16.5063C186.395 18.4907 188.425 22.0986 187.974 25.7066Z" fill="#F7FAFF"/>
<path d="M174.446 29.4047C171.695 27.4654 170.297 24.9399 170.477 22.3241C170.658 20.0241 172.056 17.9495 174.13 16.9122C176.565 15.6945 180.037 16.0553 182.562 17.8593C185.088 19.6182 186.621 22.7751 186.305 25.4811C186.035 27.7811 184.547 29.8106 182.472 30.7577C180.082 31.84 177.196 31.344 174.446 29.4047Z" fill="#00A859"/>
<path opacity="0.3" d="M174.446 29.4047C171.695 27.4654 170.297 24.9399 170.477 22.3241C170.658 20.0241 172.056 17.9495 174.13 16.9122C176.565 15.6945 180.037 16.0553 182.562 17.8593C185.088 19.6182 186.621 22.7751 186.305 25.4811C186.035 27.7811 184.547 29.8106 182.472 30.7577C180.082 31.84 177.196 31.344 174.446 29.4047Z" fill="#191919"/>
<path d="M174.446 29.4047C171.695 27.4654 170.252 25.0301 170.342 22.5045C170.432 20.3397 171.74 18.4005 173.724 17.4534C176.069 16.371 179.496 16.822 182.021 18.626C184.547 20.3848 186.125 23.4516 185.899 26.0223C185.719 28.2321 184.321 30.0812 182.292 30.893C179.992 31.8851 177.196 31.344 174.446 29.4047Z" fill="#00A859"/>
<path opacity="0.2" d="M174.446 29.4047C171.695 27.4654 170.252 25.0301 170.342 22.5045C170.432 20.3397 171.74 18.4005 173.724 17.4534C176.069 16.371 179.496 16.822 182.021 18.626C184.547 20.3848 186.125 23.4516 185.899 26.0223C185.719 28.2321 184.321 30.0812 182.292 30.893C179.992 31.8851 177.196 31.344 174.446 29.4047Z" fill="#F7FAFF"/>
<path opacity="0.3" d="M183.96 20.4299L171.289 26.0223C170.658 24.8948 170.342 23.7222 170.387 22.5045C170.432 21.9182 170.522 21.3319 170.703 20.7907L178.91 17.1828C180.037 17.4534 181.119 17.9495 182.066 18.626C182.788 19.1672 183.419 19.7535 183.96 20.4299Z" fill="#F7FAFF"/>
<path opacity="0.3" d="M185.764 24.0379L174.13 29.1792C173.408 28.638 172.732 28.0517 172.236 27.4203L184.907 21.828C185.313 22.5496 185.584 23.3163 185.764 24.0379Z" fill="#F7FAFF"/>
<path opacity="0.1" d="M198.481 13.9808C198.075 10.8689 195.685 7.26097 191.942 4.60012C188.154 1.93927 183.96 0.901984 180.894 1.57847C186.08 -0.541191 190.77 -0.631389 194.016 1.66867C197.218 3.96873 198.706 8.38846 198.481 13.9808Z" fill="#191919"/>
<path opacity="0.5" d="M153.378 70.3789C154.797 68.3628 153.637 65.1008 150.787 63.0929C147.936 61.0851 144.474 61.0917 143.055 63.1078C141.635 65.1239 142.795 68.3859 145.646 70.3938C148.496 72.4016 151.958 72.395 153.378 70.3789Z" fill="#00A859"/>
<path opacity="0.5" d="M139.904 68.4606C138.461 70.4901 135.033 70.4901 132.193 68.5057C129.352 66.5213 128.179 63.2291 129.622 61.2447C131.065 59.2153 134.492 59.2153 137.333 61.1996C140.174 63.184 141.347 66.4312 139.904 68.4606Z" fill="#00A859"/>
<path opacity="0.5" d="M159.655 82.3512C158.212 84.3806 154.785 84.3806 151.944 82.3963C149.103 80.4119 147.93 77.1197 149.373 75.1353C150.816 73.1058 154.243 73.1058 157.084 75.0902C159.925 77.0746 161.098 80.3217 159.655 82.3512Z" fill="#00A859"/>
<path opacity="0.5" d="M146.217 80.457C144.774 82.4865 141.347 82.4865 138.506 80.5021C135.665 78.5177 134.492 75.2255 135.935 73.2411C137.378 71.2117 140.805 71.2117 143.646 73.196C146.487 75.1804 147.66 78.4275 146.217 80.457Z" fill="#00A859"/>
<path opacity="0.5" d="M153.342 70.3548C153.206 70.5803 153.026 70.7607 152.8 70.9411C153.567 68.9116 152.395 66.1605 149.869 64.3566C147.344 62.5526 144.323 62.3722 142.654 63.8154C142.744 63.5899 142.88 63.3644 143.015 63.1389C144.413 61.1094 147.885 61.1094 150.726 63.0938C153.612 65.0782 154.785 68.3253 153.342 70.3548Z" fill="#00A859"/>
<path opacity="0.5" d="M139.904 68.4606C139.768 68.6861 139.588 68.8665 139.362 69.0469C140.174 67.0174 138.957 64.2664 136.431 62.4624C133.906 60.6584 130.885 60.4781 129.216 61.9212C129.306 61.6957 129.442 61.4702 129.577 61.2447C131.02 59.2153 134.447 59.2153 137.288 61.1996C140.174 63.184 141.347 66.4311 139.904 68.4606Z" fill="#00A859"/>
<path opacity="0.5" d="M159.655 82.3512C159.519 82.5767 159.339 82.7571 159.114 82.9375C159.925 80.908 158.708 78.1118 156.182 76.353C153.657 74.549 150.636 74.3686 148.967 75.8118C149.058 75.5863 149.193 75.3608 149.328 75.1353C150.771 73.1058 154.198 73.1058 157.039 75.0902C159.925 77.0746 161.098 80.3217 159.655 82.3512Z" fill="#00A859"/>
<path opacity="0.5" d="M146.217 80.457C146.081 80.6825 145.901 80.8629 145.676 81.0433C146.442 79.0138 145.27 76.2177 142.744 74.4588C140.219 72.6548 137.198 72.4744 135.529 73.9176C135.62 73.6921 135.755 73.4666 135.89 73.2411C137.333 71.2117 140.76 71.2117 143.601 73.196C146.487 75.1804 147.66 78.4275 146.217 80.457Z" fill="#00A859"/>
<path d="M150.591 33.0126C150.591 33.0126 144.503 40.905 139.182 47.715C137.649 49.6542 135.214 50.6013 132.779 50.2856C128.134 49.6993 120.603 52.9916 120.603 52.9916C120.603 52.9916 134.898 29.5851 150.591 33.0126Z" fill="#00A859"/>
<path opacity="0.3" d="M150.591 33.0126C150.591 33.0126 144.503 40.905 139.182 47.715C137.649 49.6542 135.214 50.6013 132.779 50.2856C128.134 49.6993 120.603 52.9916 120.603 52.9916C120.603 52.9916 134.898 29.5851 150.591 33.0126Z" fill="#191919"/>
<path d="M179.135 53.1269C179.135 53.1269 173.769 61.5153 169.124 68.8214C167.817 70.896 167.772 73.5117 168.854 75.7216C170.973 79.8707 170.387 88.1239 170.387 88.1239C170.387 88.1239 187.658 66.7468 179.135 53.1269Z" fill="#00A859"/>
<path opacity="0.3" d="M179.135 53.1269C179.135 53.1269 173.769 61.5153 169.124 68.8214C167.817 70.896 167.772 73.5117 168.854 75.7216C170.973 79.8707 170.387 88.1239 170.387 88.1239C170.387 88.1239 187.658 66.7468 179.135 53.1269Z" fill="#191919"/>
<path d="M198.796 113.47C204.388 99.6693 180.082 95.7907 170.432 99.2183C160.782 102.691 150.952 105.262 150.591 96.0162C150.185 86.816 157.626 81.0884 154.108 78.9236C152.124 77.7511 151.583 79.8256 150.636 82.8473C147.66 92.1377 130.84 94.3927 138.596 107.877C146.307 121.362 142.203 118.431 129.216 123.842C116.184 129.254 122.903 144.814 135.484 144.814C148.066 144.814 187.793 144.814 211.287 144.814C245.965 144.859 213.091 78.3824 198.796 113.47Z" fill="#00A859"/>
<path opacity="0.6" d="M198.796 113.47C204.388 99.6693 180.082 95.7907 170.432 99.2183C160.782 102.691 150.952 105.262 150.591 96.0162C150.185 86.816 157.626 81.0884 154.108 78.9236C152.124 77.7511 151.583 79.8256 150.636 82.8473C147.66 92.1377 130.84 94.3927 138.596 107.877C146.307 121.362 142.203 118.431 129.216 123.842C116.184 129.254 122.903 144.814 135.484 144.814C148.066 144.814 187.793 144.814 211.287 144.814C245.965 144.859 213.091 78.3824 198.796 113.47Z" fill="#F7FAFF"/>
<path d="M134.763 65.439C133.771 61.9212 128.269 66.3409 122.903 71.6627C117.492 77.0295 114.876 89.2062 109.646 95.5652C104.415 101.969 89.5336 107.697 95.3507 117.258C103.964 131.374 84.1674 144.904 107.571 144.904C130.975 144.904 146.803 144.904 155.596 144.904C164.39 144.904 173.904 134.17 160.241 126.864C146.577 119.558 126.105 136.606 120.558 120.325C117.808 112.252 127.773 115.95 123.174 102.781C118.574 89.567 118.89 86.0042 121.235 80.0962C126.962 65.7547 136.296 70.7607 134.763 65.439Z" fill="#00A859"/>
<path opacity="0.6" d="M134.763 65.439C133.771 61.9212 128.269 66.3409 122.903 71.6627C117.492 77.0295 114.876 89.2062 109.646 95.5652C104.415 101.969 89.5336 107.697 95.3507 117.258C103.964 131.374 84.1674 144.904 107.571 144.904C130.975 144.904 146.803 144.904 155.596 144.904C164.39 144.904 173.904 134.17 160.241 126.864C146.577 119.558 126.105 136.606 120.558 120.325C117.808 112.252 127.773 115.95 123.174 102.781C118.574 89.567 118.89 86.0042 121.235 80.0962C126.962 65.7547 136.296 70.7607 134.763 65.439Z" fill="#F7FAFF"/>
<path d="M144.729 67.0625C145.901 64.8978 150.005 66.2057 149.914 69.0469C149.824 71.8882 139.227 75.6314 141.211 85.463C143.195 95.2946 162.045 96.0162 166.509 105.848C170.928 115.679 153.793 117.078 158.888 123.211C163.984 129.345 179.812 115.229 191.085 118.882C202.359 122.535 213.587 144.904 192.934 144.904C172.281 144.904 143.105 144.904 129.261 144.904C115.418 144.904 105.317 116.311 118.619 104.54C131.922 92.7691 121.19 96.6025 126.15 89.071C131.11 81.4943 140.174 75.4059 144.729 67.0625Z" fill="#00A859"/>
<path opacity="0.8" d="M144.729 67.0625C145.901 64.8978 150.005 66.2057 149.914 69.0469C149.824 71.8882 139.227 75.6314 141.211 85.463C143.195 95.2946 162.045 96.0162 166.509 105.848C170.928 115.679 153.793 117.078 158.888 123.211C163.984 129.345 179.812 115.229 191.085 118.882C202.359 122.535 213.587 144.904 192.934 144.904C172.281 144.904 143.105 144.904 129.261 144.904C115.418 144.904 105.317 116.311 118.619 104.54C131.922 92.7691 121.19 96.6025 126.15 89.071C131.11 81.4943 140.174 75.4059 144.729 67.0625Z" fill="#F7FAFF"/>
</g>
<defs>
<clipPath id="clip0_68_4515">
<rect width="174.874" height="150" fill="white" transform="translate(71)"/>
</clipPath>
</defs>
</svg>
