<svg width="175" height="150" viewBox="0 0 175 150" fill="none" xmlns="http://www.w3.org/2000/svg">
<path d="M87.4372 149.955C135.727 149.955 174.874 147.673 174.874 144.859C174.874 142.044 135.727 139.762 87.4372 139.762C39.147 139.762 0 142.044 0 144.859C0 147.673 39.147 149.955 87.4372 149.955Z" fill="#00A859" fill-opacity="0.3"/>
<path d="M89.3762 17.0475L89.0606 16.822C90.4585 15.018 91.9917 13.3043 93.4798 11.7258L93.7503 11.9964C92.3073 13.5749 90.8192 15.2886 89.3762 17.0475Z" fill="#00A859"/>
<path d="M87.7074 18.557L86.2502 20.3944L86.5682 20.6467L88.0253 18.8092L87.7074 18.557Z" fill="#00A859"/>
<path d="M119.003 37.9735C128.788 22.2339 130.141 6.67468 123.016 1.66867C115.846 -3.33734 101.687 3.15694 90.1879 17.6789L57.2242 59.2604L90.9996 83.0728L119.003 37.9735Z" fill="#00A859"/>
<path opacity="0.1" d="M115.125 35.2676L86.4451 79.8707L82.9278 73.1509L111.427 32.4714C119.499 20.9711 124.008 10.463 124.008 4.60012C124.008 4.05893 124.775 3.92363 124.955 4.41972C126.985 10.2826 123.467 22.3241 115.125 35.2676Z" fill="#F7FAFF"/>
<path d="M90.9954 83.0568C95.5556 76.5809 91.6922 66.0063 82.3664 59.4378C73.0406 52.8692 61.7837 52.7941 57.2236 59.27C52.6634 65.7459 56.5268 76.3205 65.8526 82.8891C75.1784 89.4576 86.4353 89.5327 90.9954 83.0568Z" fill="#00A859"/>
<path opacity="0.5" d="M90.9954 83.0568C95.5556 76.5809 91.6922 66.0063 82.3664 59.4378C73.0406 52.8692 61.7837 52.7941 57.2236 59.27C52.6634 65.7459 56.5268 76.3205 65.8526 82.8891C75.1784 89.4576 86.4353 89.5327 90.9954 83.0568Z" fill="#F7FAFF"/>
<path opacity="0.1" d="M87.4823 52.0445C80.0869 46.813 71.6543 45.3247 66.2881 47.7601L57.9006 58.3133C62.861 52.7661 73.4581 53.172 82.3416 59.3957C91.2251 65.6194 95.1483 75.4961 91.5858 82.0355L98.6205 70.7607C99.2067 64.8527 94.9679 57.3211 87.4823 52.0445Z" fill="#191919"/>
<path opacity="0.2" d="M99.342 18.0848C97.2677 21.3319 95.7345 27.4203 101.867 31.7498C107.955 36.0343 113.186 32.5616 115.576 29.4949L99.342 18.0848Z" fill="#191919"/>
<path d="M116.974 25.7066C116.252 31.5244 109.533 35.7637 102.499 30.8028C95.4188 25.8419 97.1775 18.0848 102.408 15.469C105.655 13.8455 109.759 14.567 112.555 16.5063C115.395 18.4907 117.425 22.0986 116.974 25.7066Z" fill="#F7FAFF"/>
<path d="M103.446 29.4047C100.695 27.4654 99.2969 24.9399 99.4773 22.3241C99.6577 20.0241 101.056 17.9495 103.13 16.9122C105.565 15.6945 109.037 16.0553 111.562 17.8593C114.088 19.6182 115.621 22.7751 115.305 25.4811C115.035 27.7811 113.547 29.8106 111.472 30.7577C109.082 31.84 106.196 31.344 103.446 29.4047Z" fill="#00A859"/>
<path opacity="0.3" d="M103.446 29.4047C100.695 27.4654 99.2969 24.9399 99.4773 22.3241C99.6577 20.0241 101.056 17.9495 103.13 16.9122C105.565 15.6945 109.037 16.0553 111.562 17.8593C114.088 19.6182 115.621 22.7751 115.305 25.4811C115.035 27.7811 113.547 29.8106 111.472 30.7577C109.082 31.84 106.196 31.344 103.446 29.4047Z" fill="#191919"/>
<path d="M103.446 29.4047C100.695 27.4654 99.2518 25.0301 99.342 22.5045C99.4322 20.3397 100.74 18.4005 102.724 17.4534C105.069 16.371 108.496 16.822 111.021 18.626C113.547 20.3848 115.125 23.4516 114.899 26.0223C114.719 28.2321 113.321 30.0812 111.292 30.893C108.992 31.8851 106.196 31.344 103.446 29.4047Z" fill="#00A859"/>
<path opacity="0.2" d="M103.446 29.4047C100.695 27.4654 99.2518 25.0301 99.342 22.5045C99.4322 20.3397 100.74 18.4005 102.724 17.4534C105.069 16.371 108.496 16.822 111.021 18.626C113.547 20.3848 115.125 23.4516 114.899 26.0223C114.719 28.2321 113.321 30.0812 111.292 30.893C108.992 31.8851 106.196 31.344 103.446 29.4047Z" fill="#F7FAFF"/>
<path opacity="0.3" d="M112.96 20.4299L100.289 26.0223C99.6577 24.8948 99.342 23.7222 99.3871 22.5045C99.4322 21.9182 99.5224 21.3319 99.7028 20.7907L107.91 17.1828C109.037 17.4534 110.119 17.9495 111.066 18.626C111.788 19.1672 112.419 19.7535 112.96 20.4299Z" fill="#F7FAFF"/>
<path opacity="0.3" d="M114.764 24.0379L103.13 29.1792C102.408 28.638 101.732 28.0517 101.236 27.4203L113.907 21.828C114.313 22.5496 114.584 23.3163 114.764 24.0379Z" fill="#F7FAFF"/>
<path opacity="0.1" d="M127.481 13.9808C127.075 10.8689 124.685 7.26097 120.942 4.60012C117.154 1.93927 112.96 0.901984 109.894 1.57847C115.08 -0.541191 119.77 -0.631389 123.016 1.66867C126.218 3.96873 127.706 8.38846 127.481 13.9808Z" fill="#191919"/>
<path opacity="0.5" d="M82.3778 70.3789C83.7975 68.3628 82.6374 65.1008 79.7867 63.0929C76.936 61.0851 73.4742 61.0917 72.0545 63.1078C70.6349 65.1239 71.7949 68.3859 74.6456 70.3938C77.4963 72.4016 80.9581 72.395 82.3778 70.3789Z" fill="#00A859"/>
<path opacity="0.5" d="M68.9036 68.4606C67.4606 70.4901 64.0334 70.4901 61.1925 68.5057C58.3516 66.5213 57.1791 63.2291 58.6222 61.2447C60.0652 59.2153 63.4923 59.2153 66.3332 61.1996C69.1741 63.184 70.3466 66.4312 68.9036 68.4606Z" fill="#00A859"/>
<path opacity="0.5" d="M88.6547 82.3512C87.2117 84.3806 83.7846 84.3806 80.9437 82.3963C78.1027 80.4119 76.9303 77.1197 78.3733 75.1353C79.8163 73.1058 83.2434 73.1058 86.0844 75.0902C88.9253 77.0746 90.0977 80.3217 88.6547 82.3512Z" fill="#00A859"/>
<path opacity="0.5" d="M75.2167 80.457C73.7737 82.4865 70.3466 82.4865 67.5057 80.5021C64.6647 78.5177 63.4923 75.2255 64.9353 73.2411C66.3783 71.2117 69.8055 71.2117 72.6464 73.196C75.4873 75.1804 76.6597 78.4275 75.2167 80.457Z" fill="#00A859"/>
<path opacity="0.5" d="M82.3416 70.3548C82.2063 70.5803 82.0259 70.7607 81.8004 70.9411C82.567 68.9116 81.3946 66.1605 78.8693 64.3566C76.3441 62.5526 73.3228 62.3722 71.6543 63.8154C71.7445 63.5899 71.8798 63.3644 72.0151 63.1389C73.413 61.1094 76.8852 61.1094 79.7261 63.0938C82.6121 65.0782 83.7846 68.3253 82.3416 70.3548Z" fill="#00A859"/>
<path opacity="0.5" d="M68.9036 68.4606C68.7683 68.6861 68.5879 68.8665 68.3624 69.0469C69.1741 67.0174 67.9566 64.2664 65.4313 62.4624C62.9061 60.6584 59.8848 60.4781 58.2163 61.9212C58.3065 61.6957 58.4418 61.4702 58.5771 61.2447C60.0201 59.2153 63.4472 59.2153 66.2881 61.1996C69.1741 63.184 70.3466 66.4311 68.9036 68.4606Z" fill="#00A859"/>
<path opacity="0.5" d="M88.6547 82.3512C88.5194 82.5767 88.3391 82.7571 88.1136 82.9375C88.9253 80.908 87.7078 78.1118 85.1825 76.353C82.6572 74.549 79.6359 74.3686 77.9675 75.8118C78.0576 75.5863 78.1929 75.3608 78.3282 75.1353C79.7712 73.1058 83.1984 73.1058 86.0393 75.0902C88.9253 77.0746 90.0977 80.3217 88.6547 82.3512Z" fill="#00A859"/>
<path opacity="0.5" d="M75.2167 80.457C75.0814 80.6825 74.9011 80.8629 74.6756 81.0433C75.4422 79.0138 74.2698 76.2177 71.7445 74.4588C69.2192 72.6548 66.1979 72.4744 64.5295 73.9176C64.6196 73.6921 64.7549 73.4666 64.8902 73.2411C66.3332 71.2117 69.7604 71.2117 72.6013 73.196C75.4873 75.1804 76.6597 78.4275 75.2167 80.457Z" fill="#00A859"/>
<path d="M79.5908 33.0126C79.5908 33.0126 73.5032 40.905 68.1821 47.715C66.6489 49.6542 64.2138 50.6013 61.7787 50.2856C57.134 49.6993 49.6034 52.9916 49.6034 52.9916C49.6034 52.9916 63.8981 29.5851 79.5908 33.0126Z" fill="#00A859"/>
<path opacity="0.3" d="M79.5908 33.0126C79.5908 33.0126 73.5032 40.905 68.1821 47.715C66.6489 49.6542 64.2138 50.6013 61.7787 50.2856C57.134 49.6993 49.6034 52.9916 49.6034 52.9916C49.6034 52.9916 63.8981 29.5851 79.5908 33.0126Z" fill="#191919"/>
<path d="M108.135 53.1269C108.135 53.1269 102.769 61.5153 98.1245 68.8214C96.8167 70.896 96.7716 73.5117 97.8539 75.7216C99.9733 79.8707 99.3871 88.1239 99.3871 88.1239C99.3871 88.1239 116.658 66.7468 108.135 53.1269Z" fill="#00A859"/>
<path opacity="0.3" d="M108.135 53.1269C108.135 53.1269 102.769 61.5153 98.1245 68.8214C96.8167 70.896 96.7716 73.5117 97.8539 75.7216C99.9733 79.8707 99.3871 88.1239 99.3871 88.1239C99.3871 88.1239 116.658 66.7468 108.135 53.1269Z" fill="#191919"/>
<path d="M127.796 113.47C133.388 99.6693 109.082 95.7907 99.4322 99.2183C89.7821 102.691 79.9516 105.262 79.5908 96.0162C79.185 86.816 86.6255 81.0884 83.1082 78.9236C81.124 77.7511 80.5829 79.8256 79.6359 82.8473C76.6597 92.1377 59.8397 94.3927 67.5958 107.877C75.3069 121.362 71.2034 118.431 58.2163 123.842C45.1842 129.254 51.9032 144.814 64.4844 144.814C77.0656 144.814 116.793 144.814 140.287 144.814C174.965 144.859 142.091 78.3824 127.796 113.47Z" fill="#00A859"/>
<path opacity="0.6" d="M127.796 113.47C133.388 99.6693 109.082 95.7907 99.4322 99.2183C89.7821 102.691 79.9516 105.262 79.5908 96.0162C79.185 86.816 86.6255 81.0884 83.1082 78.9236C81.124 77.7511 80.5829 79.8256 79.6359 82.8473C76.6597 92.1377 59.8397 94.3927 67.5958 107.877C75.3069 121.362 71.2034 118.431 58.2163 123.842C45.1842 129.254 51.9032 144.814 64.4844 144.814C77.0656 144.814 116.793 144.814 140.287 144.814C174.965 144.859 142.091 78.3824 127.796 113.47Z" fill="#F7FAFF"/>
<path d="M63.7629 65.439C62.7708 61.9212 57.2693 66.3409 51.9031 71.6627C46.4919 77.0295 43.8764 89.2062 38.6455 95.5652C33.4146 101.969 18.5336 107.697 24.3507 117.258C32.9637 131.374 13.1674 144.904 36.5712 144.904C59.975 144.904 75.8029 144.904 84.5963 144.904C93.3896 144.904 102.904 134.17 89.2409 126.864C75.5775 119.558 55.1048 136.606 49.5583 120.325C46.8075 112.252 56.7733 115.95 52.1737 102.781C47.5741 89.567 47.8898 86.0042 50.2347 80.0962C55.9616 65.7547 65.296 70.7607 63.7629 65.439Z" fill="#00A859"/>
<path opacity="0.6" d="M63.7629 65.439C62.7708 61.9212 57.2693 66.3409 51.9031 71.6627C46.4919 77.0295 43.8764 89.2062 38.6455 95.5652C33.4146 101.969 18.5336 107.697 24.3507 117.258C32.9637 131.374 13.1674 144.904 36.5712 144.904C59.975 144.904 75.8029 144.904 84.5963 144.904C93.3896 144.904 102.904 134.17 89.2409 126.864C75.5775 119.558 55.1048 136.606 49.5583 120.325C46.8075 112.252 56.7733 115.95 52.1737 102.781C47.5741 89.567 47.8898 86.0042 50.2347 80.0962C55.9616 65.7547 65.296 70.7607 63.7629 65.439Z" fill="#F7FAFF"/>
<path d="M73.7286 67.0625C74.9011 64.8978 79.0046 66.2057 78.9144 69.0469C78.8242 71.8882 68.2272 75.6314 70.2113 85.463C72.1954 95.2946 91.0447 96.0162 95.509 105.848C99.9282 115.679 82.7925 117.078 87.8881 123.211C92.9837 129.345 108.812 115.229 120.085 118.882C131.359 122.535 142.587 144.904 121.934 144.904C101.281 144.904 72.1052 144.904 58.2614 144.904C44.4176 144.904 34.3165 116.311 47.6192 104.54C60.9219 92.7691 50.1896 96.6025 55.1499 89.071C60.1103 81.4943 69.1741 75.4059 73.7286 67.0625Z" fill="#00A859"/>
<path opacity="0.8" d="M73.7286 67.0625C74.9011 64.8978 79.0046 66.2057 78.9144 69.0469C78.8242 71.8882 68.2272 75.6314 70.2113 85.463C72.1954 95.2946 91.0447 96.0162 95.509 105.848C99.9282 115.679 82.7925 117.078 87.8881 123.211C92.9837 129.345 108.812 115.229 120.085 118.882C131.359 122.535 142.587 144.904 121.934 144.904C101.281 144.904 72.1052 144.904 58.2614 144.904C44.4176 144.904 34.3165 116.311 47.6192 104.54C60.9219 92.7691 50.1896 96.6025 55.1499 89.071C60.1103 81.4943 69.1741 75.4059 73.7286 67.0625Z" fill="#F7FAFF"/>
</svg>
