<svg width="21" height="21" viewBox="0 0 21 21" fill="none" xmlns="http://www.w3.org/2000/svg">
<path fill-rule="evenodd" clip-rule="evenodd" d="M9.49212 0.0368883C9.90612 0.0368883 10.2421 0.372888 10.2421 0.786888C10.2421 1.20089 9.90612 1.53689 9.49212 1.53689H5.75312C3.16912 1.53689 1.50012 3.30689 1.50012 6.04589V14.3599C1.50012 17.0989 3.16912 18.8689 5.75312 18.8689H14.5771C17.1611 18.8689 18.8311 17.0989 18.8311 14.3599V10.3319C18.8311 9.91789 19.1671 9.58189 19.5811 9.58189C19.9951 9.58189 20.3311 9.91789 20.3311 10.3319V14.3599C20.3311 17.9539 18.0181 20.3689 14.5771 20.3689H5.75312C2.31212 20.3689 0.00012207 17.9539 0.00012207 14.3599V6.04589C0.00012207 2.45189 2.31212 0.0368883 5.75312 0.0368883H9.49212ZM18.2017 0.915488L19.4187 2.13249C20.0117 2.72449 20.3377 3.51149 20.3367 4.34949C20.3367 5.18749 20.0107 5.97349 19.4187 6.56449L11.9097 14.0735C11.3587 14.6245 10.6247 14.9285 9.84472 14.9285H6.09872C5.89672 14.9285 5.70272 14.8465 5.56172 14.7015C5.42072 14.5575 5.34372 14.3625 5.34872 14.1595L5.44272 10.3805C5.46172 9.62849 5.76472 8.92149 6.29672 8.38849H6.29772L13.7707 0.915488C14.9927 -0.304512 16.9797 -0.304512 18.2017 0.915488ZM13.1551 3.65149L7.35772 9.44949C7.09872 9.70849 6.95172 10.0525 6.94272 10.4175L6.86772 13.4285H9.84472C10.2247 13.4285 10.5807 13.2815 10.8497 13.0125L16.6821 7.17849L13.1551 3.65149ZM14.8307 1.97649L14.2151 2.59049L17.7421 6.11849L18.3587 5.50349C18.6667 5.19549 18.8367 4.78549 18.8367 4.34949C18.8367 3.91249 18.6667 3.50149 18.3587 3.19349L17.1417 1.97649C16.5047 1.34149 15.4687 1.34149 14.8307 1.97649Z" fill="#00A859"/>
</svg>
