<svg width="125" height="125" viewBox="0 0 125 125" fill="none" xmlns="http://www.w3.org/2000/svg">
<path d="M112.776 28.1982C114.124 28.1982 115.217 29.292 115.217 30.6396C115.217 31.9873 114.124 33.0811 112.776 33.0811C111.428 33.0811 110.334 31.9873 110.334 30.6396C110.334 29.292 111.428 28.1982 112.776 28.1982Z" fill="#00A859"/>
<path d="M112.776 91.6748C114.124 91.6748 115.217 92.7686 115.217 94.1162C115.217 95.4639 114.124 96.5576 112.776 96.5576C111.428 96.5576 110.334 95.4639 110.334 94.1162C110.334 92.7686 111.428 91.6748 112.776 91.6748Z" fill="#00A859"/>
<path d="M100.569 106.323C103.267 106.323 105.452 108.508 105.452 111.206C105.452 113.904 103.267 116.089 100.569 116.089C97.8711 116.089 95.686 113.904 95.686 111.206C95.686 108.508 97.8711 106.323 100.569 106.323Z" fill="#00A859"/>
<path d="M95.686 6.22559C97.0337 6.22559 98.1274 7.31934 98.1274 8.66699C98.1274 10.0146 97.0337 11.1084 95.686 11.1084C94.3384 11.1084 93.2446 10.0146 93.2446 8.66699C93.2446 7.31934 94.3384 6.22559 95.686 6.22559Z" fill="#00A859"/>
<path d="M61.5064 13.5498C34.5386 13.5498 12.6782 35.4102 12.6782 62.3779C12.6782 89.3457 34.5386 111.206 61.5064 111.206C88.4741 111.206 110.334 89.3457 110.334 62.3779C110.334 35.4102 88.4741 13.5498 61.5064 13.5498Z" fill="#FF8700"/>
<path d="M61.5064 98.999C41.2817 98.999 24.8853 82.6025 24.8853 62.3779C24.8853 42.1533 41.2817 25.7568 61.5064 25.7568C81.731 25.7568 98.1275 42.1533 98.1275 62.3779C98.1275 82.6025 81.731 98.999 61.5064 98.999Z" fill="#FCFCFC"/>
<path d="M24.8853 111.206C26.2329 111.206 27.3267 112.3 27.3267 113.647C27.3267 114.995 26.2329 116.089 24.8853 116.089C23.5374 116.089 22.4438 114.995 22.4438 113.647C22.4438 112.3 23.5374 111.206 24.8853 111.206Z" fill="#00A859"/>
<path d="M18.7817 11.1084C22.1533 11.1084 24.8853 13.8403 24.8853 17.2119C24.8853 20.5835 22.1533 23.3154 18.7817 23.3154C15.4099 23.3154 12.6782 20.5835 12.6782 17.2119C12.6782 13.8403 15.4099 11.1084 18.7817 11.1084Z" fill="#00A859"/>
<path d="M10.2368 30.6396C11.5845 30.6396 12.6782 31.7334 12.6782 33.0811C12.6782 34.4287 11.5845 35.5225 10.2368 35.5225C8.88892 35.5225 7.79541 34.4287 7.79541 33.0811C7.79541 31.7334 8.88892 30.6396 10.2368 30.6396Z" fill="#00A859"/>
<path d="M10.2368 91.6748C11.5845 91.6748 12.6782 92.7686 12.6782 94.1162C12.6782 95.4639 11.5845 96.5576 10.2368 96.5576C8.88892 96.5576 7.79541 95.4639 7.79541 94.1162C7.79541 92.7686 8.88892 91.6748 10.2368 91.6748Z" fill="#00A859"/>
<path d="M90.8032 62.3779C90.8032 61.0295 89.71 59.9365 88.3618 59.9365C87.0137 59.9365 85.9204 61.0295 85.9204 62.3779C85.9204 75.8401 74.9685 86.792 61.5063 86.792C60.158 86.792 59.0649 87.8853 59.0649 89.2334V98.916C59.8721 98.9692 60.6858 98.999 61.5063 98.999C62.3269 98.999 63.1404 98.9692 63.9478 98.916V91.574C78.9639 90.3291 90.8032 77.71 90.8032 62.3779Z" fill="#00A859" fill-opacity="0.3"/>
<path d="M32.2095 62.3779C32.2095 63.7261 33.3025 64.8193 34.6509 64.8193C35.999 64.8193 37.0923 63.7261 37.0923 62.3779C37.0923 48.916 48.0442 37.9639 61.5063 37.9639C62.8545 37.9639 63.9478 36.8708 63.9478 35.5225V25.8398C63.1404 25.7866 62.3269 25.7568 61.5063 25.7568C60.6858 25.7568 59.8721 25.7866 59.0649 25.8398V33.1819C44.0488 34.4268 32.2095 47.0459 32.2095 62.3779Z" fill="#00A859" fill-opacity="0.3"/>
<path d="M62 70.9165C62.4486 70.9165 62.8249 70.7645 63.1289 70.4605C63.4329 70.1565 63.5844 69.7807 63.5833 69.3332C63.5833 68.8846 63.4313 68.5083 63.1273 68.2043C62.8233 67.9003 62.4475 67.7488 62 67.7498C61.5514 67.7498 61.1751 67.9018 60.8711 68.2058C60.5671 68.5098 60.4156 68.8856 60.4167 69.3332C60.4167 69.7818 60.5687 70.1581 60.8727 70.4621C61.1767 70.7661 61.5524 70.9176 62 70.9165ZM60.4167 64.5832H63.5833V55.0832H60.4167V64.5832ZM62 78.8332C59.8097 78.8332 57.7514 78.4173 55.825 77.5855C53.8986 76.7537 52.2229 75.6259 50.7979 74.2019C49.3729 72.7769 48.245 71.1012 47.4143 69.1748C46.5836 67.2484 46.1677 65.1901 46.1667 62.9998C46.1667 60.8096 46.5825 58.7512 47.4143 56.8248C48.2461 54.8984 49.374 53.2228 50.7979 51.7978C52.2229 50.3728 53.8986 49.2449 55.825 48.4142C57.7514 47.5834 59.8097 47.1676 62 47.1665C64.1903 47.1665 66.2486 47.5824 68.175 48.4142C70.1014 49.2459 71.7771 50.3738 73.2021 51.7978C74.6271 53.2228 75.7555 54.8984 76.5872 56.8248C77.419 58.7512 77.8344 60.8096 77.8333 62.9998C77.8333 65.1901 77.4174 67.2484 76.5857 69.1748C75.7539 71.1012 74.626 72.7769 73.2021 74.2019C71.7771 75.6269 70.1014 76.7553 68.175 77.5871C66.2486 78.4189 64.1903 78.8342 62 78.8332ZM62 75.6665C65.5361 75.6665 68.5312 74.4394 70.9854 71.9853C73.4396 69.5311 74.6667 66.5359 74.6667 62.9998C74.6667 59.4637 73.4396 56.4686 70.9854 54.0144C68.5312 51.5603 65.5361 50.3332 62 50.3332C58.4639 50.3332 55.4687 51.5603 53.0146 54.0144C50.5604 56.4686 49.3333 59.4637 49.3333 62.9998C49.3333 66.5359 50.5604 69.5311 53.0146 71.9853C55.4687 74.4394 58.4639 75.6665 62 75.6665Z" fill="#F85555"/>
</svg>
