<svg width="109" height="111" viewBox="0 0 109 111" fill="none" xmlns="http://www.w3.org/2000/svg">
<path d="M105.776 22.1982C107.124 22.1982 108.217 23.292 108.217 24.6396C108.217 25.9873 107.124 27.0811 105.776 27.0811C104.428 27.0811 103.334 25.9873 103.334 24.6396C103.334 23.292 104.428 22.1982 105.776 22.1982Z" fill="#00A859"/>
<path d="M105.776 85.6748C107.124 85.6748 108.217 86.7686 108.217 88.1162C108.217 89.4639 107.124 90.5576 105.776 90.5576C104.428 90.5576 103.334 89.4639 103.334 88.1162C103.334 86.7686 104.428 85.6748 105.776 85.6748Z" fill="#00A859"/>
<path d="M93.5688 100.323C96.2666 100.323 98.4517 102.508 98.4517 105.206C98.4517 107.904 96.2666 110.089 93.5688 110.089C90.8711 110.089 88.686 107.904 88.686 105.206C88.686 102.508 90.8711 100.323 93.5688 100.323Z" fill="#00A859"/>
<path d="M88.686 0.225586C90.0337 0.225586 91.1274 1.31934 91.1274 2.66699C91.1274 4.01465 90.0337 5.1084 88.686 5.1084C87.3384 5.1084 86.2446 4.01465 86.2446 2.66699C86.2446 1.31934 87.3384 0.225586 88.686 0.225586Z" fill="#00A859"/>
<path d="M54.5064 7.5498C27.5386 7.5498 5.67822 29.4102 5.67822 56.3779C5.67822 83.3457 27.5386 105.206 54.5064 105.206C81.4741 105.206 103.334 83.3457 103.334 56.3779C103.334 29.4102 81.4741 7.5498 54.5064 7.5498Z" fill="#FF8700"/>
<path d="M54.5064 92.999C34.2817 92.999 17.8853 76.6025 17.8853 56.3779C17.8853 36.1533 34.2817 19.7568 54.5064 19.7568C74.731 19.7568 91.1275 36.1533 91.1275 56.3779C91.1275 76.6025 74.731 92.999 54.5064 92.999Z" fill="#FCFCFC"/>
<path d="M17.8853 105.206C19.2329 105.206 20.3267 106.3 20.3267 107.647C20.3267 108.995 19.2329 110.089 17.8853 110.089C16.5374 110.089 15.4438 108.995 15.4438 107.647C15.4438 106.3 16.5374 105.206 17.8853 105.206Z" fill="#00A859"/>
<path d="M11.7817 5.1084C15.1533 5.1084 17.8853 7.84033 17.8853 11.2119C17.8853 14.5835 15.1533 17.3154 11.7817 17.3154C8.40991 17.3154 5.67822 14.5835 5.67822 11.2119C5.67822 7.84033 8.40991 5.1084 11.7817 5.1084Z" fill="#00A859"/>
<path d="M3.23682 24.6396C4.58447 24.6396 5.67822 25.7334 5.67822 27.0811C5.67822 28.4287 4.58447 29.5225 3.23682 29.5225C1.88892 29.5225 0.79541 28.4287 0.79541 27.0811C0.79541 25.7334 1.88892 24.6396 3.23682 24.6396Z" fill="#00A859"/>
<path d="M3.23682 85.6748C4.58447 85.6748 5.67822 86.7686 5.67822 88.1162C5.67822 89.4639 4.58447 90.5576 3.23682 90.5576C1.88892 90.5576 0.79541 89.4639 0.79541 88.1162C0.79541 86.7686 1.88892 85.6748 3.23682 85.6748Z" fill="#00A859"/>
<path d="M83.8032 56.3779C83.8032 55.0295 82.71 53.9365 81.3618 53.9365C80.0137 53.9365 78.9204 55.0295 78.9204 56.3779C78.9204 69.8401 67.9685 80.792 54.5063 80.792C53.158 80.792 52.0649 81.8853 52.0649 83.2334V92.916C52.8721 92.9692 53.6858 92.999 54.5063 92.999C55.3269 92.999 56.1404 92.9692 56.9478 92.916V85.574C71.9639 84.3291 83.8032 71.71 83.8032 56.3779Z" fill="#00A859" fill-opacity="0.3"/>
<path d="M25.2095 56.3779C25.2095 57.7261 26.3025 58.8193 27.6509 58.8193C28.999 58.8193 30.0923 57.7261 30.0923 56.3779C30.0923 42.916 41.0442 31.9639 54.5063 31.9639C55.8545 31.9639 56.9478 30.8708 56.9478 29.5225V19.8398C56.1404 19.7866 55.3269 19.7568 54.5063 19.7568C53.6858 19.7568 52.8721 19.7866 52.0649 19.8398V27.1819C37.0488 28.4268 25.2095 41.0459 25.2095 56.3779Z" fill="#00A859" fill-opacity="0.3"/>
</svg>
