<svg width="24" height="24" viewBox="0 0 24 24" fill="none" xmlns="http://www.w3.org/2000/svg">
<path d="M15.135 12.5C15.015 12.5 14.89 12.48 14.77 12.44C14.5446 12.3682 14.3482 12.226 14.2096 12.0343C14.071 11.8426 13.9975 11.6115 14 11.375V9.97C12.87 9.79 12 8.805 12 7.625V4.375C12 3.065 13.065 2 14.375 2H20.125C21.435 2 22.5 3.065 22.5 4.375V7.625C22.5 8.935 21.435 10 20.125 10H17.565L16.025 12.05C15.805 12.34 15.48 12.5 15.135 12.5ZM14.375 3.25C13.755 3.25 13.25 3.755 13.25 4.375V7.625C13.25 8.245 13.755 8.75 14.375 8.75H15.25V11L16.94 8.75H20.13C20.75 8.75 21.255 8.245 21.255 7.625V4.375C21.255 3.755 20.75 3.25 20.13 3.25H14.375ZM8 13.75C5.93 13.75 4.25 12.07 4.25 10C4.25 7.93 5.93 6.25 8 6.25C10.07 6.25 11.75 7.93 11.75 10C11.75 12.07 10.07 13.75 8 13.75ZM8 7.5C6.62 7.5 5.5 8.62 5.5 10C5.5 11.38 6.62 12.5 8 12.5C9.38 12.5 10.5 11.38 10.5 10C10.5 8.62 9.38 7.5 8 7.5ZM1.5 17.395C1.5 17.44 1.575 22 8 22C14.425 22 14.5 17.44 14.5 17.395V16.875C14.5 15.84 13.66 15 12.625 15H3.375C2.34 15 1.5 15.84 1.5 16.875V17.395ZM2.75 16.875C2.75 16.53 3.03 16.25 3.375 16.25H12.625C12.97 16.25 13.25 16.53 13.25 16.875V17.39C13.25 17.525 13.14 20.75 8 20.75C2.86 20.75 2.75 17.525 2.75 17.395V16.875Z" fill="#00A859"/>
</svg>
