<svg width="36" height="37" viewBox="0 0 36 37" fill="none" xmlns="http://www.w3.org/2000/svg">
<rect y="0.46582" width="36" height="36" rx="6" fill="#EB7100" fill-opacity="0.3"/>
<g clip-path="url(#clip0_70_5219)">
<g clip-path="url(#clip1_70_5219)">
<path d="M25.0631 12.0397L20.553 10.6943L22.7828 9.58544C22.9237 9.51486 23.0305 9.39152 23.08 9.24256C23.1294 9.0936 23.1173 8.93122 23.0463 8.79113C22.9753 8.65105 22.8513 8.54474 22.7016 8.4956C22.5518 8.44645 22.3885 8.4585 22.2477 8.52908L18.7974 10.2441C17.2468 10.2842 15.7732 10.9247 14.6904 12.0293C13.6075 13.1338 13.001 14.6152 13 16.1579V23.8422C13 23.9991 13.0626 24.1495 13.1742 24.2604C13.2857 24.3713 13.4369 24.4336 13.5946 24.4336C13.7523 24.4336 13.9036 24.3713 14.0151 24.2604C14.1266 24.1495 14.1892 23.9991 14.1892 23.8422V21.4767H15.3784V25.6164C15.3784 25.9301 15.5037 26.2309 15.7268 26.4527C15.9498 26.6745 16.2523 26.7992 16.5677 26.7992H21.3245C21.6399 26.7992 21.9424 26.6745 22.1654 26.4527C22.3885 26.2309 22.5138 25.9301 22.5138 25.6164V16.1542C22.5126 15.3161 22.2135 14.5053 21.6695 13.8652C21.1255 13.2251 20.3715 12.7969 19.5407 12.6562V11.6265L24.7212 13.1722C24.7966 13.1966 24.8761 13.2058 24.9551 13.1992C25.034 13.1926 25.1109 13.1704 25.1811 13.1339C25.2513 13.0973 25.3135 13.0472 25.3639 12.9864C25.4144 12.9256 25.4521 12.8554 25.4749 12.7799C25.4977 12.7045 25.5051 12.6252 25.4966 12.5468C25.4882 12.4685 25.4641 12.3926 25.4257 12.3236C25.3873 12.2546 25.3355 12.194 25.2732 12.1452C25.211 12.0965 25.1395 12.0606 25.0631 12.0397ZM14.1892 20.2939V16.1542C14.1907 15.0024 14.6141 13.8906 15.3802 13.0269C16.1463 12.1632 17.2026 11.6067 18.3515 11.4616V12.6562C17.5207 12.7969 16.7667 13.2251 16.2227 13.8652C15.6787 14.5053 15.3796 15.3161 15.3784 16.1542V20.2939H14.1892ZM21.3245 25.6164H16.5677V21.4767H21.3245V25.6164ZM21.3245 16.1542V20.2939H16.5677V16.1542C16.5677 15.5269 16.8182 14.9252 17.2643 14.4815C17.7103 14.0379 18.3153 13.7887 18.9461 13.7887C19.5769 13.7887 20.1819 14.0379 20.6279 14.4815C21.0739 14.9252 21.3245 15.5269 21.3245 16.1542Z" fill="#EB7100"/>
</g>
</g>
<defs>
<clipPath id="clip0_70_5219">
<rect width="20" height="20" fill="white" transform="translate(8 8.46582)"/>
</clipPath>
<clipPath id="clip1_70_5219">
<rect width="26.6667" height="26.6667" fill="white" transform="translate(7.58331 8.46582)"/>
</clipPath>
</defs>
</svg>
