<svg width="20" height="21" viewBox="0 0 20 21" fill="none" xmlns="http://www.w3.org/2000/svg">
<g clip-path="url(#clip0_70_5220)">
<g clip-path="url(#clip1_70_5220)">
<path d="M17.0631 4.03968L12.553 2.69428L14.7828 1.58544C14.9237 1.51486 15.0305 1.39152 15.08 1.24256C15.1294 1.0936 15.1173 0.931215 15.0463 0.791133C14.9753 0.651051 14.8513 0.544744 14.7016 0.495599C14.5518 0.446454 14.3885 0.458496 14.2477 0.529076L10.7974 2.24409C9.24684 2.28416 7.77322 2.92468 6.69038 4.02927C5.60754 5.13385 5.00103 6.61522 5 8.15793V15.8422C5 15.9991 5.06265 16.1495 5.17416 16.2604C5.28567 16.3713 5.43691 16.4336 5.59461 16.4336C5.75231 16.4336 5.90355 16.3713 6.01506 16.2604C6.12657 16.1495 6.18922 15.9991 6.18922 15.8422V13.4767H7.37844V17.6164C7.37844 17.9301 7.50373 18.2309 7.72675 18.4527C7.94977 18.6745 8.25226 18.7992 8.56766 18.7992H13.3245C13.6399 18.7992 13.9424 18.6745 14.1654 18.4527C14.3885 18.2309 14.5138 17.9301 14.5138 17.6164V8.15424C14.5126 7.31609 14.2135 6.50534 13.6695 5.86524C13.1255 5.22514 12.3715 4.79691 11.5407 4.6562V3.62645L16.7212 5.17218C16.7966 5.19659 16.8761 5.20577 16.9551 5.19919C17.034 5.19261 17.1109 5.17039 17.1811 5.13385C17.2513 5.09731 17.3135 5.04718 17.3639 4.9864C17.4144 4.92562 17.4521 4.85543 17.4749 4.77994C17.4977 4.70446 17.5051 4.6252 17.4966 4.54683C17.4882 4.46847 17.4641 4.39257 17.4257 4.32361C17.3873 4.25464 17.3355 4.19399 17.2732 4.14524C17.211 4.09648 17.1395 4.06059 17.0631 4.03968ZM6.18922 12.2939V8.15424C6.19066 7.00244 6.61406 5.89064 7.38018 5.0269C8.1463 4.16316 9.20263 3.60668 10.3515 3.4616V4.6562C9.52073 4.79691 8.76671 5.22514 8.22268 5.86524C7.67865 6.50534 7.37963 7.31609 7.37844 8.15424V12.2939H6.18922ZM13.3245 17.6164H8.56766V13.4767H13.3245V17.6164ZM13.3245 8.15424V12.2939H8.56766V8.15424C8.56766 7.52686 8.81824 6.92517 9.26428 6.48155C9.71033 6.03793 10.3153 5.7887 10.9461 5.7887C11.5769 5.7887 12.1819 6.03793 12.6279 6.48155C13.0739 6.92517 13.3245 7.52686 13.3245 8.15424Z" fill="#EB7100"/>
</g>
</g>
<defs>
<clipPath id="clip0_70_5220">
<rect width="20" height="20" fill="white" transform="translate(0 0.46582)"/>
</clipPath>
<clipPath id="clip1_70_5220">
<rect width="26.6667" height="26.6667" fill="white" transform="translate(-0.416687 0.46582)"/>
</clipPath>
</defs>
</svg>
