<svg width="13" height="19" viewBox="0 0 13 19" fill="none" xmlns="http://www.w3.org/2000/svg">
<path d="M12.0631 4.03968L7.55303 2.69428L9.78281 1.58544C9.92366 1.51486 10.0305 1.39152 10.08 1.24256C10.1294 1.0936 10.1173 0.931215 10.0463 0.791133C9.97533 0.651051 9.85132 0.544744 9.70155 0.495599C9.55178 0.446454 9.38851 0.458496 9.24766 0.529076L5.79744 2.24409C4.24684 2.28416 2.77322 2.92468 1.69038 4.02927C0.607536 5.13385 0.00102626 6.61522 0 8.15793V15.8422C0 15.9991 0.0626463 16.1495 0.174157 16.2604C0.285668 16.3713 0.436909 16.4336 0.594609 16.4336C0.75231 16.4336 0.903551 16.3713 1.01506 16.2604C1.12657 16.1495 1.18922 15.9991 1.18922 15.8422V13.4767H2.37844V17.6164C2.37844 17.9301 2.50373 18.2309 2.72675 18.4527C2.94977 18.6745 3.25226 18.7992 3.56766 18.7992H8.32453C8.63993 18.7992 8.94242 18.6745 9.16544 18.4527C9.38846 18.2309 9.51375 17.9301 9.51375 17.6164V8.15424C9.51256 7.31609 9.21353 6.50534 8.6695 5.86524C8.12547 5.22514 7.37146 4.79691 6.5407 4.6562V3.62645L11.7212 5.17218C11.7966 5.19659 11.8761 5.20577 11.9551 5.19919C12.034 5.19261 12.1109 5.17039 12.1811 5.13385C12.2513 5.09731 12.3135 5.04718 12.3639 4.9864C12.4144 4.92562 12.4521 4.85543 12.4749 4.77994C12.4977 4.70446 12.5051 4.6252 12.4966 4.54683C12.4882 4.46847 12.4641 4.39257 12.4257 4.32361C12.3873 4.25464 12.3355 4.19399 12.2732 4.14524C12.211 4.09648 12.1395 4.06059 12.0631 4.03968ZM1.18922 12.2939V8.15424C1.19066 7.00244 1.61406 5.89064 2.38018 5.0269C3.1463 4.16316 4.20263 3.60668 5.35148 3.4616V4.6562C4.52073 4.79691 3.76671 5.22514 3.22268 5.86524C2.67865 6.50534 2.37963 7.31609 2.37844 8.15424V12.2939H1.18922ZM8.32453 17.6164H3.56766V13.4767H8.32453V17.6164ZM8.32453 8.15424V12.2939H3.56766V8.15424C3.56766 7.52686 3.81824 6.92517 4.26428 6.48155C4.71033 6.03793 5.31529 5.7887 5.94609 5.7887C6.5769 5.7887 7.18186 6.03793 7.6279 6.48155C8.07395 6.92517 8.32453 7.52686 8.32453 8.15424Z" fill="#EB7100"/>
</svg>
