<svg width="181" height="106" viewBox="0 0 181 106" fill="none" xmlns="http://www.w3.org/2000/svg">
<path d="M131.423 78.6903C117.084 78.6903 104.561 67.6427 104.145 53.3036C103.691 38.4726 115.608 26.29 130.326 26.29C139.822 26.29 148.108 31.3597 152.686 38.9266C153.67 40.5534 155.977 40.6291 157.15 39.1536C160.139 35.5215 164.679 33.1758 169.749 33.1758C170.998 33.1758 172.208 33.3271 173.381 33.592C175.765 34.1595 177.77 31.8138 176.673 29.6194C165.436 6.84318 138.006 -6.47446 109.404 4.83796C90.5243 12.2913 78.5309 31.0949 78.5309 51.374V52.3199C78.5309 80.9982 101.685 104.191 130.25 104.191H152.648V78.6525H131.423V78.6903Z" fill="#00A859"/>
<path d="M175.911 63.4336C173.528 64.8335 170.766 65.628 167.777 65.628C164.485 65.628 161.421 64.6443 158.848 62.9418C156.956 61.6932 154.497 63.0174 154.497 65.2496V78.4538L154.195 103.992H180.035V65.8928C180.035 63.7741 177.765 62.3742 175.911 63.4336Z" fill="#00A859"/>
<path d="M167.21 62.6054C174.398 62.6054 180.225 56.7784 180.225 49.5904C180.225 42.4024 174.398 36.5754 167.21 36.5754C160.022 36.5754 154.195 42.4024 154.195 49.5904C154.195 56.7784 160.022 62.6054 167.21 62.6054Z" fill="#313131"/>
<path d="M41.896 1.72388C57.2567 1.72388 69.9312 6.60449 79.9572 16.4036C89.9455 26.0891 94.9396 38.3852 94.9396 53.2541C94.9396 68.1607 89.9455 80.5325 79.9572 90.4073C69.8933 100.282 57.181 105.2 41.896 105.2H20.5575C9.24511 105.2 0.0892334 96.0446 0.0892334 84.7321V22.1922C0.0892334 10.8798 9.24511 1.72388 20.5575 1.72388H41.896ZM41.896 80.9109C47.382 80.9109 51.9978 78.9435 55.7812 74.9709C60.3969 70.0525 62.7048 62.8261 62.7048 53.2541C62.7048 43.7198 60.3969 36.5313 55.7812 31.7264C52.0734 27.9051 47.4576 25.9756 41.896 25.9756H38.4909C33.8373 25.9756 30.0918 29.759 30.0918 34.3748V72.5495C30.0918 77.2031 33.8752 80.9487 38.4909 80.9487H41.896V80.9109Z" fill="#00A859"/>
</svg>
