<svg width="20" height="20" viewBox="0 0 20 20" fill="none" xmlns="http://www.w3.org/2000/svg">
<path d="M8.875 18C8.07935 18 7.31629 17.6839 6.75368 17.1213C6.19107 16.5587 5.875 15.7957 5.875 15V4L10.875 9" stroke="#92929D" stroke-width="2.66667" stroke-linecap="round" stroke-linejoin="round"/>
<path d="M10.875 2C11.6706 2 12.4337 2.31607 12.9963 2.87868C13.5589 3.44129 13.875 4.20435 13.875 5V16L8.875 11" stroke="#92929D" stroke-width="2.66667" stroke-linecap="round" stroke-linejoin="round"/>
<path d="M1.875 5C1.875 4.20435 2.19107 3.44129 2.75368 2.87868C3.31629 2.31607 4.07935 2 4.875 2H14.875C15.6706 2 16.4337 2.31607 16.9963 2.87868C17.5589 3.44129 17.875 4.20435 17.875 5V15C17.875 15.7956 17.5589 16.5587 16.9963 17.1213C16.4337 17.6839 15.6706 18 14.875 18H4.875C4.07935 18 3.31629 17.6839 2.75368 17.1213C2.19107 16.5587 1.875 15.7956 1.875 15V5Z" stroke="#92929D" stroke-width="2.66667" stroke-linecap="round" stroke-linejoin="round"/>
</svg>
