<svg width="108" height="110" viewBox="0 0 108 110" fill="none" xmlns="http://www.w3.org/2000/svg">
<path d="M104.981 21.9717C106.329 21.9717 107.422 23.0654 107.422 24.4131C107.422 25.7607 106.329 26.8545 104.981 26.8545C103.633 26.8545 102.54 25.7607 102.54 24.4131C102.54 23.0654 103.633 21.9717 104.981 21.9717Z" fill="#00A859"/>
<path d="M104.981 85.4482C106.329 85.4482 107.422 86.542 107.422 87.8896C107.422 89.2373 106.329 90.3311 104.981 90.3311C103.633 90.3311 102.54 89.2373 102.54 87.8896C102.54 86.542 103.633 85.4482 104.981 85.4482Z" fill="#00A859"/>
<path d="M92.7739 100.097C95.4717 100.097 97.6568 102.282 97.6568 104.979C97.6568 107.677 95.4717 109.862 92.7739 109.862C90.0762 109.862 87.8911 107.677 87.8911 104.979C87.8911 102.282 90.0762 100.097 92.7739 100.097Z" fill="#00A859"/>
<path d="M87.8911 -0.000976562C89.2388 -0.000976562 90.3325 1.09277 90.3325 2.44043C90.3325 3.78809 89.2388 4.88184 87.8911 4.88184C86.5435 4.88184 85.4497 3.78809 85.4497 2.44043C85.4497 1.09277 86.5435 -0.000976562 87.8911 -0.000976562Z" fill="#00A859"/>
<path d="M53.7114 7.32324C26.7437 7.32324 4.8833 29.1836 4.8833 56.1514C4.8833 83.1191 26.7437 104.979 53.7114 104.979C80.6792 104.979 102.54 83.1191 102.54 56.1514C102.54 29.1836 80.6792 7.32324 53.7114 7.32324Z" fill="#FF8700"/>
<path d="M53.7114 92.7725C33.4868 92.7725 17.0903 76.376 17.0903 56.1514C17.0903 35.9268 33.4868 19.5303 53.7114 19.5303C73.936 19.5303 90.3325 35.9268 90.3325 56.1514C90.3325 76.376 73.936 92.7725 53.7114 92.7725Z" fill="#FCFCFC"/>
<path d="M17.0903 104.979C18.438 104.979 19.5317 106.073 19.5317 107.421C19.5317 108.769 18.438 109.862 17.0903 109.862C15.7424 109.862 14.6489 108.769 14.6489 107.421C14.6489 106.073 15.7424 104.979 17.0903 104.979Z" fill="#00A859"/>
<path d="M10.9868 4.88184C14.3584 4.88184 17.0903 7.61377 17.0903 10.9854C17.0903 14.3569 14.3584 17.0889 10.9868 17.0889C7.61499 17.0889 4.8833 14.3569 4.8833 10.9854C4.8833 7.61377 7.61499 4.88184 10.9868 4.88184Z" fill="#00A859"/>
<path d="M2.44189 24.4131C3.78955 24.4131 4.8833 25.5068 4.8833 26.8545C4.8833 28.2021 3.78955 29.2959 2.44189 29.2959C1.09399 29.2959 0.000488281 28.2021 0.000488281 26.8545C0.000488281 25.5068 1.09399 24.4131 2.44189 24.4131Z" fill="#00A859"/>
<path d="M2.44189 85.4482C3.78955 85.4482 4.8833 86.542 4.8833 87.8896C4.8833 89.2373 3.78955 90.3311 2.44189 90.3311C1.09399 90.3311 0.000488281 89.2373 0.000488281 87.8896C0.000488281 86.542 1.09399 85.4482 2.44189 85.4482Z" fill="#00A859"/>
<path d="M83.0083 56.1514C83.0083 54.803 81.915 53.71 80.5669 53.71C79.2188 53.71 78.1255 54.803 78.1255 56.1514C78.1255 69.6135 67.1736 80.5654 53.7114 80.5654C52.363 80.5654 51.27 81.6587 51.27 83.0068V92.6895C52.0771 92.7427 52.8909 92.7725 53.7114 92.7725C54.532 92.7725 55.3455 92.7427 56.1528 92.6895V85.3474C71.1689 84.1025 83.0083 71.4834 83.0083 56.1514Z" fill="#00A859" fill-opacity="0.3"/>
<path d="M24.4146 56.1514C24.4146 57.4995 25.5076 58.5928 26.856 58.5928C28.2041 58.5928 29.2974 57.4995 29.2974 56.1514C29.2974 42.6895 40.2493 31.7373 53.7114 31.7373C55.0596 31.7373 56.1528 30.6443 56.1528 29.2959V19.6133C55.3455 19.5601 54.532 19.5303 53.7114 19.5303C52.8909 19.5303 52.0771 19.5601 51.27 19.6133V26.9553C36.2539 28.2002 24.4146 40.8193 24.4146 56.1514Z" fill="#00A859" fill-opacity="0.3"/>
</svg>
