<svg width="125" height="125" viewBox="0 0 125 125" fill="none" xmlns="http://www.w3.org/2000/svg">
<path d="M112.981 27.9717C114.329 27.9717 115.422 29.0654 115.422 30.4131C115.422 31.7607 114.329 32.8545 112.981 32.8545C111.633 32.8545 110.54 31.7607 110.54 30.4131C110.54 29.0654 111.633 27.9717 112.981 27.9717Z" fill="#00A859"/>
<path d="M112.981 91.4482C114.329 91.4482 115.422 92.542 115.422 93.8896C115.422 95.2373 114.329 96.3311 112.981 96.3311C111.633 96.3311 110.54 95.2373 110.54 93.8896C110.54 92.542 111.633 91.4482 112.981 91.4482Z" fill="#00A859"/>
<path d="M100.774 106.097C103.472 106.097 105.657 108.282 105.657 110.979C105.657 113.677 103.472 115.862 100.774 115.862C98.0762 115.862 95.8911 113.677 95.8911 110.979C95.8911 108.282 98.0762 106.097 100.774 106.097Z" fill="#00A859"/>
<path d="M95.8911 5.99902C97.2388 5.99902 98.3325 7.09277 98.3325 8.44043C98.3325 9.78809 97.2388 10.8818 95.8911 10.8818C94.5435 10.8818 93.4497 9.78809 93.4497 8.44043C93.4497 7.09277 94.5435 5.99902 95.8911 5.99902Z" fill="#00A859"/>
<path d="M61.7114 13.3232C34.7437 13.3232 12.8833 35.1836 12.8833 62.1514C12.8833 89.1191 34.7437 110.979 61.7114 110.979C88.6792 110.979 110.54 89.1191 110.54 62.1514C110.54 35.1836 88.6792 13.3232 61.7114 13.3232Z" fill="#FF8700"/>
<path d="M61.7114 98.7725C41.4868 98.7725 25.0903 82.376 25.0903 62.1514C25.0903 41.9268 41.4868 25.5303 61.7114 25.5303C81.936 25.5303 98.3325 41.9268 98.3325 62.1514C98.3325 82.376 81.936 98.7725 61.7114 98.7725Z" fill="#FCFCFC"/>
<path d="M25.0903 110.979C26.438 110.979 27.5317 112.073 27.5317 113.421C27.5317 114.769 26.438 115.862 25.0903 115.862C23.7424 115.862 22.6489 114.769 22.6489 113.421C22.6489 112.073 23.7424 110.979 25.0903 110.979Z" fill="#00A859"/>
<path d="M18.9868 10.8818C22.3584 10.8818 25.0903 13.6138 25.0903 16.9854C25.0903 20.3569 22.3584 23.0889 18.9868 23.0889C15.615 23.0889 12.8833 20.3569 12.8833 16.9854C12.8833 13.6138 15.615 10.8818 18.9868 10.8818Z" fill="#00A859"/>
<path d="M10.4419 30.4131C11.7896 30.4131 12.8833 31.5068 12.8833 32.8545C12.8833 34.2021 11.7896 35.2959 10.4419 35.2959C9.09399 35.2959 8.00049 34.2021 8.00049 32.8545C8.00049 31.5068 9.09399 30.4131 10.4419 30.4131Z" fill="#00A859"/>
<path d="M10.4419 91.4482C11.7896 91.4482 12.8833 92.542 12.8833 93.8896C12.8833 95.2373 11.7896 96.3311 10.4419 96.3311C9.09399 96.3311 8.00049 95.2373 8.00049 93.8896C8.00049 92.542 9.09399 91.4482 10.4419 91.4482Z" fill="#00A859"/>
<path d="M91.0083 62.1514C91.0083 60.803 89.915 59.71 88.5669 59.71C87.2188 59.71 86.1255 60.803 86.1255 62.1514C86.1255 75.6135 75.1736 86.5654 61.7114 86.5654C60.363 86.5654 59.27 87.6587 59.27 89.0068V98.6895C60.0771 98.7427 60.8909 98.7725 61.7114 98.7725C62.532 98.7725 63.3455 98.7427 64.1528 98.6895V91.3474C79.1689 90.1025 91.0083 77.4834 91.0083 62.1514Z" fill="#00A859" fill-opacity="0.3"/>
<path d="M32.4146 62.1514C32.4146 63.4995 33.5076 64.5928 34.856 64.5928C36.2041 64.5928 37.2974 63.4995 37.2974 62.1514C37.2974 48.6895 48.2493 37.7373 61.7114 37.7373C63.0596 37.7373 64.1528 36.6443 64.1528 35.2959V25.6133C63.3455 25.5601 62.532 25.5303 61.7114 25.5303C60.8909 25.5303 60.0771 25.5601 59.27 25.6133V32.9553C44.2539 34.2002 32.4146 46.8193 32.4146 62.1514Z" fill="#00A859" fill-opacity="0.3"/>
<g clip-path="url(#clip0_67_1958)">
<path d="M79.7537 56.1917C79.4469 55.215 78.8339 54.363 78.0054 53.7617C77.1769 53.1604 76.1768 52.8417 75.1532 52.8527H68.5997L66.6092 46.6487C66.2962 45.6721 65.6811 44.8202 64.8526 44.2158C64.0242 43.6113 63.0252 43.2856 61.9997 43.2856C60.9742 43.2856 59.9752 43.6113 59.1467 44.2158C58.3183 44.8202 57.7032 45.6721 57.3902 46.6487L55.3997 52.8527H48.8462C47.8258 52.8541 46.832 53.178 46.0067 53.778C45.1813 54.3781 44.5668 55.2236 44.2507 56.1937C43.9346 57.1639 43.9332 58.2092 44.2467 59.1803C44.5602 60.1513 45.1725 60.9984 45.9962 61.6007L51.3302 65.5007L49.3022 71.7812C48.9745 72.7553 48.9703 73.8092 49.2904 74.7858C49.6104 75.7624 50.2375 76.6095 51.0782 77.2007C51.9045 77.8108 52.9058 78.1377 53.9329 78.1326C54.9601 78.1274 55.9581 77.7906 56.7782 77.1722L61.9997 73.3292L67.2227 77.1677C68.0475 77.7743 69.0434 78.1039 70.0672 78.1089C71.0911 78.1138 72.0902 77.794 72.9208 77.1954C73.7515 76.5968 74.3709 75.7502 74.6901 74.7774C75.0093 73.8045 75.0118 72.7555 74.6972 71.7812L72.6692 65.5007L78.0092 61.6007C78.8423 61.006 79.4618 60.1589 79.776 59.1847C80.0902 58.2105 80.0824 57.161 79.7537 56.1917ZM76.2392 59.1782L70.0232 63.7217C69.7679 63.9079 69.5779 64.1701 69.4804 64.4707C69.3829 64.7713 69.3828 65.095 69.4802 65.3957L71.8427 72.7007C71.9622 73.0712 71.9612 73.4701 71.8398 73.8399C71.7183 74.2098 71.4827 74.5317 71.1668 74.7592C70.8509 74.9868 70.471 75.1083 70.0817 75.1063C69.6924 75.1043 69.3137 74.9789 69.0002 74.7482L62.8877 70.2482C62.6302 70.0591 62.3191 69.9571 61.9997 69.9571C61.6802 69.9571 61.3691 70.0591 61.1117 70.2482L54.9992 74.7482C54.6858 74.982 54.3061 75.11 53.9151 75.1136C53.5241 75.1171 53.1421 74.996 52.8245 74.7679C52.507 74.5397 52.2703 74.2164 52.1489 73.8447C52.0275 73.473 52.0276 73.0723 52.1492 72.7007L54.5192 65.3957C54.6166 65.095 54.6165 64.7713 54.519 64.4707C54.4215 64.1701 54.2315 63.9079 53.9762 63.7217L47.7602 59.1782C47.4471 58.949 47.2145 58.6267 47.0956 58.2574C46.9767 57.8881 46.9775 57.4906 47.0979 57.1218C47.2184 56.753 47.4523 56.4317 47.7663 56.2037C48.0802 55.9758 48.4582 55.8529 48.8462 55.8527H56.4962C56.8138 55.8527 57.1231 55.7519 57.3798 55.5648C57.6364 55.3777 57.827 55.114 57.9242 54.8117L60.2492 47.5652C60.3685 47.1943 60.6025 46.871 60.9173 46.6415C61.2321 46.4121 61.6116 46.2885 62.0012 46.2885C62.3907 46.2885 62.7703 46.4121 63.0851 46.6415C63.3999 46.871 63.6338 47.1943 63.7532 47.5652L66.0782 54.8117C66.1754 55.114 66.366 55.3777 66.6226 55.5648C66.8792 55.7519 67.1886 55.8527 67.5062 55.8527H75.1562C75.5442 55.8529 75.9222 55.9758 76.2361 56.2037C76.5501 56.4317 76.784 56.753 76.9045 57.1218C77.0249 57.4906 77.0257 57.8881 76.9068 58.2574C76.7878 58.6267 76.5552 58.949 76.2422 59.1782H76.2392Z" fill="#00A859"/>
</g>
<defs>
<clipPath id="clip0_67_1958">
<rect width="36" height="36" fill="white" transform="translate(44 43)"/>
</clipPath>
</defs>
</svg>
