<svg width="14" height="16" viewBox="0 0 14 16" fill="none" xmlns="http://www.w3.org/2000/svg">
<path d="M0.999969 9.35C0.999969 7.85011 0.999969 7.10016 1.38194 6.57443C1.50529 6.40464 1.65461 6.25533 1.8244 6.13197C2.35013 5.75 3.10008 5.75 4.59997 5.75H9.39997C10.8999 5.75 11.6498 5.75 12.1755 6.13197C12.3453 6.25533 12.4946 6.40464 12.618 6.57443C13 7.10016 13 7.85011 13 9.35V9.35C13 11.5998 13 12.7248 12.427 13.5134C12.242 13.768 12.018 13.992 11.7633 14.1771C10.9747 14.75 9.84981 14.75 7.59997 14.75H6.39997C4.15013 14.75 3.02521 14.75 2.23661 14.1771C1.98193 13.992 1.75796 13.768 1.57292 13.5134C0.999969 12.7248 0.999969 11.5998 0.999969 9.35V9.35Z" stroke="#92929D" stroke-width="1.2"/>
<path d="M9.99997 5V4.25C9.99997 2.59315 8.65682 1.25 6.99997 1.25V1.25C5.34312 1.25 3.99997 2.59315 3.99997 4.25V5" stroke="#92929D" stroke-width="1.2" stroke-linecap="round"/>
<circle cx="6.99997" cy="10.25" r="1.5" fill="#92929D"/>
</svg>
