<svg width="36" height="37" viewBox="0 0 36 37" fill="none" xmlns="http://www.w3.org/2000/svg">
<rect y="0.46582" width="36" height="36" rx="6" fill="#0057A8" fill-opacity="0.2"/>
<g clip-path="url(#clip0_70_5156)">
<path d="M26.9166 15.7992H25.97L23.6875 11.8042C23.5709 11.6001 23.4024 11.4305 23.1991 11.3126C22.9958 11.1946 22.765 11.1325 22.53 11.1325H12.6366C12.4016 11.1325 12.1708 11.1946 11.9675 11.3126C11.7643 11.4305 11.5958 11.6001 11.4791 11.8042L9.19665 15.7992H8.24998C8.07317 15.7992 7.9036 15.8694 7.77858 15.9944C7.65355 16.1194 7.58331 16.289 7.58331 16.4658C7.58331 16.6426 7.65355 16.8122 7.77858 16.9372C7.9036 17.0622 8.07317 17.1325 8.24998 17.1325H8.91665V23.7992C8.91665 24.1528 9.05712 24.4919 9.30717 24.742C9.55722 24.992 9.89636 25.1325 10.25 25.1325H12.25C12.6036 25.1325 12.9427 24.992 13.1928 24.742C13.4428 24.4919 13.5833 24.1528 13.5833 23.7992V22.4658H21.5833V23.7992C21.5833 24.1528 21.7238 24.4919 21.9738 24.742C22.2239 24.992 22.563 25.1325 22.9166 25.1325H24.9166C25.2703 25.1325 25.6094 24.992 25.8595 24.742C26.1095 24.4919 26.25 24.1528 26.25 23.7992V17.1325H26.9166C27.0935 17.1325 27.263 17.0622 27.3881 16.9372C27.5131 16.8122 27.5833 16.6426 27.5833 16.4658C27.5833 16.289 27.5131 16.1194 27.3881 15.9944C27.263 15.8694 27.0935 15.7992 26.9166 15.7992ZM12.6366 12.4658H22.53L24.4341 15.7992H10.7325L12.6366 12.4658ZM12.25 23.7992H10.25V22.4658H12.25V23.7992ZM22.9166 23.7992V22.4658H24.9166V23.7992H22.9166ZM24.9166 21.1325H10.25V17.1325H24.9166V21.1325ZM11.5833 19.1325C11.5833 18.9557 11.6536 18.7861 11.7786 18.6611C11.9036 18.5361 12.0732 18.4658 12.25 18.4658H13.5833C13.7601 18.4658 13.9297 18.5361 14.0547 18.6611C14.1797 18.7861 14.25 18.9557 14.25 19.1325C14.25 19.3093 14.1797 19.4789 14.0547 19.6039C13.9297 19.7289 13.7601 19.7992 13.5833 19.7992H12.25C12.0732 19.7992 11.9036 19.7289 11.7786 19.6039C11.6536 19.4789 11.5833 19.3093 11.5833 19.1325ZM20.9166 19.1325C20.9166 18.9557 20.9869 18.7861 21.1119 18.6611C21.2369 18.5361 21.4065 18.4658 21.5833 18.4658H22.9166C23.0935 18.4658 23.263 18.5361 23.3881 18.6611C23.5131 18.7861 23.5833 18.9557 23.5833 19.1325C23.5833 19.3093 23.5131 19.4789 23.3881 19.6039C23.263 19.7289 23.0935 19.7992 22.9166 19.7992H21.5833C21.4065 19.7992 21.2369 19.7289 21.1119 19.6039C20.9869 19.4789 20.9166 19.3093 20.9166 19.1325ZM14.9166 9.13249C14.9166 8.95568 14.9869 8.78611 15.1119 8.66108C15.2369 8.53606 15.4065 8.46582 15.5833 8.46582H19.5833C19.7601 8.46582 19.9297 8.53606 20.0547 8.66108C20.1797 8.78611 20.25 8.95568 20.25 9.13249C20.25 9.3093 20.1797 9.47887 20.0547 9.60389C19.9297 9.72892 19.7601 9.79915 19.5833 9.79915H15.5833C15.4065 9.79915 15.2369 9.72892 15.1119 9.60389C14.9869 9.47887 14.9166 9.3093 14.9166 9.13249Z" fill="#0057A8"/>
</g>
<defs>
<clipPath id="clip0_70_5156">
<rect width="20" height="20" fill="white" transform="translate(8 8.46582)"/>
</clipPath>
</defs>
</svg>
