<svg width="20" height="18" viewBox="0 0 20 18" fill="none" xmlns="http://www.w3.org/2000/svg">
<path d="M18.9166 7.79915H17.97L15.6875 3.80415C15.5709 3.60012 15.4024 3.43053 15.1991 3.31258C14.9958 3.19463 14.765 3.1325 14.53 3.13249H4.63665C4.40163 3.1325 4.1708 3.19463 3.96753 3.31258C3.76426 3.43053 3.59577 3.60012 3.47915 3.80415L1.19665 7.79915H0.24998C0.0731687 7.79915 -0.0964006 7.86939 -0.221425 7.99442C-0.346449 8.11944 -0.416687 8.28901 -0.416687 8.46582C-0.416687 8.64263 -0.346449 8.8122 -0.221425 8.93722C-0.0964006 9.06225 0.0731687 9.13249 0.24998 9.13249H0.916646V15.7992C0.916646 16.1528 1.05712 16.4919 1.30717 16.742C1.55722 16.992 1.89636 17.1325 2.24998 17.1325H4.24998C4.6036 17.1325 4.94274 16.992 5.19279 16.742C5.44284 16.4919 5.58331 16.1528 5.58331 15.7992V14.4658H13.5833V15.7992C13.5833 16.1528 13.7238 16.4919 13.9738 16.742C14.2239 16.992 14.563 17.1325 14.9166 17.1325H16.9166C17.2703 17.1325 17.6094 16.992 17.8595 16.742C18.1095 16.4919 18.25 16.1528 18.25 15.7992V9.13249H18.9166C19.0935 9.13249 19.263 9.06225 19.3881 8.93722C19.5131 8.8122 19.5833 8.64263 19.5833 8.46582C19.5833 8.28901 19.5131 8.11944 19.3881 7.99442C19.263 7.86939 19.0935 7.79915 18.9166 7.79915ZM4.63665 4.46582H14.53L16.4341 7.79915H2.73248L4.63665 4.46582ZM4.24998 15.7992H2.24998V14.4658H4.24998V15.7992ZM14.9166 15.7992V14.4658H16.9166V15.7992H14.9166ZM16.9166 13.1325H2.24998V9.13249H16.9166V13.1325ZM3.58331 11.1325C3.58331 10.9557 3.65355 10.7861 3.77858 10.6611C3.9036 10.5361 4.07317 10.4658 4.24998 10.4658H5.58331C5.76012 10.4658 5.92969 10.5361 6.05472 10.6611C6.17974 10.7861 6.24998 10.9557 6.24998 11.1325C6.24998 11.3093 6.17974 11.4789 6.05472 11.6039C5.92969 11.7289 5.76012 11.7992 5.58331 11.7992H4.24998C4.07317 11.7992 3.9036 11.7289 3.77858 11.6039C3.65355 11.4789 3.58331 11.3093 3.58331 11.1325ZM12.9166 11.1325C12.9166 10.9557 12.9869 10.7861 13.1119 10.6611C13.2369 10.5361 13.4065 10.4658 13.5833 10.4658H14.9166C15.0935 10.4658 15.263 10.5361 15.3881 10.6611C15.5131 10.7861 15.5833 10.9557 15.5833 11.1325C15.5833 11.3093 15.5131 11.4789 15.3881 11.6039C15.263 11.7289 15.0935 11.7992 14.9166 11.7992H13.5833C13.4065 11.7992 13.2369 11.7289 13.1119 11.6039C12.9869 11.4789 12.9166 11.3093 12.9166 11.1325ZM6.91665 1.13249C6.91665 0.955676 6.98688 0.786107 7.11191 0.661082C7.23693 0.536058 7.4065 0.46582 7.58331 0.46582H11.5833C11.7601 0.46582 11.9297 0.536058 12.0547 0.661082C12.1797 0.786107 12.25 0.955676 12.25 1.13249C12.25 1.3093 12.1797 1.47887 12.0547 1.60389C11.9297 1.72892 11.7601 1.79915 11.5833 1.79915H7.58331C7.4065 1.79915 7.23693 1.72892 7.11191 1.60389C6.98688 1.47887 6.91665 1.3093 6.91665 1.13249Z" fill="#0057A8"/>
</svg>
