<svg width="24" height="24" viewBox="0 0 24 24" fill="none" xmlns="http://www.w3.org/2000/svg">
<path d="M20 12V5.749C20.0001 5.67006 19.9845 5.59189 19.9543 5.51896C19.9241 5.44603 19.8798 5.37978 19.824 5.324L16.676 2.176C16.5636 2.06345 16.4111 2.00014 16.252 2H4.6C4.44087 2 4.28826 2.06321 4.17574 2.17574C4.06321 2.28826 4 2.44087 4 2.6V21.4C4 21.5591 4.06321 21.7117 4.17574 21.8243C4.28826 21.9368 4.44087 22 4.6 22H13M8 10H16M8 6H12M8 14H11" stroke="#00A859" stroke-width="1.5" stroke-linecap="round" stroke-linejoin="round"/>
<path d="M16 2V5.4C16 5.55913 16.0632 5.71174 16.1757 5.82426C16.2883 5.93679 16.4409 6 16.6 6H20M19.992 15.125L22.548 15.774C22.814 15.842 23.001 16.084 22.993 16.358C22.821 22.116 19.5 23 19.5 23C19.5 23 16.179 22.116 16.007 16.358C16.0039 16.2246 16.0463 16.0941 16.1271 15.988C16.208 15.8819 16.3226 15.8064 16.452 15.774L19.008 15.125C19.331 15.043 19.669 15.043 19.992 15.125Z" stroke="#00A859" stroke-width="1.5" stroke-linecap="round" stroke-linejoin="round"/>
</svg>
