<svg width="125" height="125" viewBox="0 0 125 125" fill="none" xmlns="http://www.w3.org/2000/svg">
<path d="M112.776 28.1982C114.124 28.1982 115.217 29.292 115.217 30.6396C115.217 31.9873 114.124 33.0811 112.776 33.0811C111.428 33.0811 110.334 31.9873 110.334 30.6396C110.334 29.292 111.428 28.1982 112.776 28.1982Z" fill="#00A859"/>
<path d="M112.776 91.6748C114.124 91.6748 115.217 92.7686 115.217 94.1162C115.217 95.4639 114.124 96.5576 112.776 96.5576C111.428 96.5576 110.334 95.4639 110.334 94.1162C110.334 92.7686 111.428 91.6748 112.776 91.6748Z" fill="#00A859"/>
<path d="M100.569 106.323C103.267 106.323 105.452 108.508 105.452 111.206C105.452 113.904 103.267 116.089 100.569 116.089C97.8711 116.089 95.686 113.904 95.686 111.206C95.686 108.508 97.8711 106.323 100.569 106.323Z" fill="#00A859"/>
<path d="M95.686 6.22559C97.0337 6.22559 98.1274 7.31934 98.1274 8.66699C98.1274 10.0146 97.0337 11.1084 95.686 11.1084C94.3384 11.1084 93.2446 10.0146 93.2446 8.66699C93.2446 7.31934 94.3384 6.22559 95.686 6.22559Z" fill="#00A859"/>
<path d="M61.5064 13.5498C34.5386 13.5498 12.6782 35.4102 12.6782 62.3779C12.6782 89.3457 34.5386 111.206 61.5064 111.206C88.4741 111.206 110.334 89.3457 110.334 62.3779C110.334 35.4102 88.4741 13.5498 61.5064 13.5498Z" fill="#FF8700"/>
<path d="M61.5064 98.999C41.2817 98.999 24.8853 82.6025 24.8853 62.3779C24.8853 42.1533 41.2817 25.7568 61.5064 25.7568C81.731 25.7568 98.1275 42.1533 98.1275 62.3779C98.1275 82.6025 81.731 98.999 61.5064 98.999Z" fill="#FCFCFC"/>
<path d="M79.658 50.835C81.565 52.7417 81.565 55.8325 79.658 57.7393L62.3948 75.0049L55.4905 81.9092L48.5837 75.0049L43.4055 69.8242C42.4536 68.8721 41.9751 67.6221 41.9751 66.3721C41.9751 65.1221 42.4536 63.8721 43.4055 62.9197C45.3125 61.0129 48.4033 61.0129 50.3098 62.9197L55.4905 68.0979L72.7539 50.835C73.7085 49.8828 74.9561 49.4043 76.2061 49.4043C77.4561 49.4043 78.7036 49.8828 79.658 50.835Z" fill="#25BD5D"/>
<path d="M24.8853 111.206C26.2329 111.206 27.3267 112.3 27.3267 113.647C27.3267 114.995 26.2329 116.089 24.8853 116.089C23.5374 116.089 22.4438 114.995 22.4438 113.647C22.4438 112.3 23.5374 111.206 24.8853 111.206Z" fill="#00A859"/>
<path d="M18.7817 11.1084C22.1533 11.1084 24.8853 13.8403 24.8853 17.2119C24.8853 20.5835 22.1533 23.3154 18.7817 23.3154C15.4099 23.3154 12.6782 20.5835 12.6782 17.2119C12.6782 13.8403 15.4099 11.1084 18.7817 11.1084Z" fill="#00A859"/>
<path d="M10.2368 30.6396C11.5845 30.6396 12.6782 31.7334 12.6782 33.0811C12.6782 34.4287 11.5845 35.5225 10.2368 35.5225C8.88892 35.5225 7.79541 34.4287 7.79541 33.0811C7.79541 31.7334 8.88892 30.6396 10.2368 30.6396Z" fill="#00A859"/>
<path d="M10.2368 91.6748C11.5845 91.6748 12.6782 92.7686 12.6782 94.1162C12.6782 95.4639 11.5845 96.5576 10.2368 96.5576C8.88892 96.5576 7.79541 95.4639 7.79541 94.1162C7.79541 92.7686 8.88892 91.6748 10.2368 91.6748Z" fill="#00A859"/>
<path d="M90.8032 62.3779C90.8032 61.0295 89.71 59.9365 88.3618 59.9365C87.0137 59.9365 85.9204 61.0295 85.9204 62.3779C85.9204 75.8401 74.9685 86.792 61.5063 86.792C60.158 86.792 59.0649 87.8853 59.0649 89.2334V98.916C59.8721 98.9692 60.6858 98.999 61.5063 98.999C62.3269 98.999 63.1404 98.9692 63.9478 98.916V91.574C78.9639 90.3291 90.8032 77.71 90.8032 62.3779Z" fill="#00A859" fill-opacity="0.3"/>
<path d="M32.2095 62.3779C32.2095 63.7261 33.3025 64.8193 34.6509 64.8193C35.999 64.8193 37.0923 63.7261 37.0923 62.3779C37.0923 48.916 48.0442 37.9639 61.5063 37.9639C62.8545 37.9639 63.9478 36.8708 63.9478 35.5225V25.8398C63.1404 25.7866 62.3269 25.7568 61.5063 25.7568C60.6858 25.7568 59.8721 25.7866 59.0649 25.8398V33.1819C44.0488 34.4268 32.2095 47.0459 32.2095 62.3779Z" fill="#00A859" fill-opacity="0.3"/>
</svg>
